<?xml version="1.0" standalone="no"?><!DOCTYPE svg PUBLIC "-//W3C//DTD SVG 1.1//EN" "http://www.w3.org/Graphics/SVG/1.1/DTD/svg11.dtd"><svg t="1578155174574" class="icon" viewBox="0 0 2021 1024" version="1.1" xmlns="http://www.w3.org/2000/svg" p-id="2032" xmlns:xlink="http://www.w3.org/1999/xlink" width="394.7265625" height="200"><defs><style type="text/css"></style></defs><path d="M362.86359 723.968H221.735385c-91.976205 0-166.833231-76.983795-166.833231-171.638154 0-94.706872 74.830769-171.716923 166.833231-171.716923 6.144 0 12.865641 0.525128 21.13641 1.522872l27.149128 3.465846 2.70441-27.831795c16.804103-170.141538 154.912821-298.377846 321.325949-298.377846 72.257641 0 140.471795 25.258667 195.531487 68.529231 11.867897-13.784615 24.339692-26.781538 37.467898-38.938257C761.672205 35.866256 679.778462 4.673641 594.051282 4.673641c-185.790359 0-340.256821 134.459077-371.003077 321.24718h-1.31282c-121.435897 0-220.265026 101.559795-220.265026 226.409025 0 124.796718 98.829128 226.356513 220.291282 226.356513h142.362256a312.241231 312.241231 0 0 1-2.126769-34.52718c0-6.826667 0.446359-13.495795 0.866462-20.191179" fill="#9AB8D4" p-id="2033"></path><path d="M1679.780103 326.472205c-23.709538 0-47.340308 2.573128-70.445949 7.745641C1535.474872 158.326154 1363.022769 41.012513 1176.444718 41.012513c-232.81559 0-426.430359 168.566154-464.974769 402.642051h-1.627898c-152.260923 0-276.086154 127.291077-276.086154 283.726769 0 156.461949 123.825231 283.726769 276.086154 283.72677h969.911795c183.637333 0 333.036308-153.573744 333.036308-342.304821 0-188.78359-149.398974-342.331077-333.010051-342.331077z m266.029948 342.331077c0 150.948103-119.335385 273.723077-266.029948 273.723077H709.842051c-115.318154 0-209.132308-96.466051-209.132307-215.145026 0-118.652718 93.814154-215.145026 209.132307-215.145025 7.666872 0 16.095179 0.603897 26.466462 1.916718l34.002051 4.306051 3.413333-34.921026c21.031385-213.175795 194.166154-373.943795 402.720821-373.943795 170.587897 0 323.741538 111.353436 381.059282 277.057641l10.817641 31.297641 30.851282-10.082461a260.46359 260.46359 0 0 1 80.60718-12.786872c146.694564 0 266.029949 122.774974 266.029948 273.723077z" fill="#9AB8D4" p-id="2034"></path></svg>