<?xml version="1.0" standalone="no"?><!DOCTYPE svg PUBLIC "-//W3C//DTD SVG 1.1//EN" "http://www.w3.org/Graphics/SVG/1.1/DTD/svg11.dtd"><svg class="icon" width="200px" height="200.00px" viewBox="0 0 1024 1024" version="1.1" xmlns="http://www.w3.org/2000/svg">
<path fill="#E8B55F" d="M512.011935 776.403188A264.390253 264.390253 0 1 1 776.402189 512.012935 264.671246 264.671246 0 0 1 512.011935 776.403188z m0-449.49853A185.109276 185.109276 0 1 0 697.121212 512.012935 185.339271 185.339271 0 0 0 512.011935 326.903658z m0-140.541414a39.601989 39.601989 0 0 1-39.652988-39.652988V39.678987a39.678987 39.678987 0 1 1 79.357975 0v107.057269A39.678987 39.678987 0 0 1 512.011935 186.389244zM253.663528 293.318515a39.167001 39.167001 0 0 1-27.980286-11.698701l-75.748067-75.748067a39.678987 39.678987 0 0 1 56.088568-56.088569l75.748068 75.748067a39.704987 39.704987 0 0 1-28.159282 67.762271zM146.735256 551.665923H39.677988a39.678987 39.678987 0 1 1 0-79.357975h107.057268a39.678987 39.678987 0 1 1 0 79.357975z m31.307201 333.969478a39.167001 39.167001 0 0 1-28.005285-11.647703 39.57699 39.57699 0 0 1 0-56.088569l75.748067-75.748067a39.678987 39.678987 0 1 1 56.088569 56.088569l-75.723068 75.748067a39.832984 39.832984 0 0 1-28.108283 11.647703zM512.011935 1023.99987a39.601989 39.601989 0 0 1-39.652988-39.652988v-107.057268a39.678987 39.678987 0 1 1 79.357975 0v107.057268A39.601989 39.601989 0 0 1 512.011935 1023.99987z m333.969478-138.364469a39.167001 39.167001 0 0 1-28.006285-11.647703l-75.748067-75.748067a39.678987 39.678987 0 0 1 56.088569-56.088569l75.748067 75.748067a39.704987 39.704987 0 0 1-28.159282 67.762271z m138.36447-333.969478h-107.057269a39.678987 39.678987 0 1 1 0-79.357975h107.057269a39.678987 39.678987 0 1 1 0 79.357975zM770.335344 293.342515A39.167001 39.167001 0 0 1 742.406056 281.618814a39.57699 39.57699 0 0 1 0-56.088569l75.748067-75.748067a39.678987 39.678987 0 0 1 56.088569 56.088569l-75.800066 75.748067a40.011979 40.011979 0 0 1-28.107282 11.699701z"  /></svg>