<?xml version="1.0" standalone="no"?><!DOCTYPE svg PUBLIC "-//W3C//DTD SVG 1.1//EN" "http://www.w3.org/Graphics/SVG/1.1/DTD/svg11.dtd"><svg class="icon" width="200px" height="108.59px" viewBox="0 0 1886 1024" version="1.1" xmlns="http://www.w3.org/2000/svg">
<path fill="#9E9E9E" d="M262.16249152 636.37825407a12.55606198 12.55606198 0 1 1 0-24.94470893h130.33191999a221.69819552 221.69819552 0 0 0 3.70403826 24.94470893z m-8.76831647-84.31395425h131.83864739a209.95827815 209.95827815 0 0 1 9.20777893-25.00748917h-141.04642632a12.55606198 12.55606198 0 0 0 0 25.00748917z m19.81765048 143.70412594a12.55606198 12.55606198 0 0 0-12.55606141 12.55606194c0 6.88490694 5.58744724 12.55606198 6.27803069 12.55606138h165.00757745a63.65923289 63.65923289 0 0 0-11.55157727-24.98656282zM1342.25584319 660.59052623a144.83417118 144.83417118 0 0 1-144.68768433 144.62490404H648.95197114c-4.18535399 0-8.18236658-0.1255605-12.28401339-0.37668216a212.34392979 212.34392979 0 0 1-199.43211322-193.40520297c-0.56502292-6.27803067-0.92077811-12.55606198-0.92077753-18.83409263a211.10925036 211.10925036 0 0 1 8.91480335-60.68763138 208.40969683 208.40969683 0 0 1 9.22870527-24.98656282 212.86709882 212.86709882 0 0 1 194.49339552-127.02549019c3.11808838 0 6.27803067 0 9.37519273 0.20926774a293.47701477 293.47701477 0 0 1 261.77295885-161.3453931c161.70114764 0 293.24682009 131.52474607 293.24682071 293.22589377 0 1.63228793 0 3.20179562-0.14648747 4.81315717A144.85509812 144.85509812 0 0 1 1342.25584319 660.59052623z m-21.13603708 0a123.46794002 123.46794002 0 0 0-216.80133177-80.94474421 120.37077797 120.37077797 0 0 0-13.60240001 19.02243343 123.32145254 123.32145254 0 0 0-12.76532972 31.39015462c-4.18535399 15.44395568-23.45890846 10.58894519-21.28252395-1.98804314a143.82968643 143.82968643 0 0 1 21.91032716-49.44995662 149.45898758 149.45898758 0 0 1 13.58147366-16.74141536 145.33641383 145.33641383 0 0 1 67.86551318-40.9118342h0.12556057c2.2182378-0.58594929 4.47832891-1.15097222 6.75934639-1.63228794l0.60687681-0.1255605c2.0926767-0.4394624 4.18535399-0.83707092 6.27803071-1.21375309l1.0254117-0.16741383c2.0926767-0.33482826 4.18535399-0.60687623 6.17339712-0.81614397l1.40209321-0.20926772c2.0926767-0.16741442 4.18535399-0.37668158 6.27803069-0.48131573h3.34828312v-4.08072042a272.15263692 272.15263692 0 0 0-511.38746487-129.74597009l1.36023994 0.16741383c2.95067456 0.46038877 5.88042218 0.96263145 8.78924342 1.54858132l4.49925528 1.02541169c1.50672741 0.31390132 2.97160154 0.69058343 4.457402 1.02541172l5.23169207 1.33931296c1.15097222 0.33482826 2.28101808 0.64873014 3.41106329 1.00448475 1.94618981 0.56502292 3.85052573 1.10911891 5.77578862 1.75784905l1.4230202 0.46038876a227.53676442 227.53676442 0 0 1 21.47086535 8.37070797 214.18548545 214.18548545 0 0 1 106.14057477 107.83564296h-23.2287138a191.54272097 191.54272097 0 0 0-362.74462186 85.65326723c0 6.27803067 0.33482826 12.55606198 0.92077816 18.83409263a196.23031702 196.23031702 0 0 0 44.38567779 104.27809219 190.70565005 190.70565005 0 0 0 146.48738607 68.22126839h548.55340745A123.46794002 123.46794002 0 0 0 1321.11980611 660.59052623z m-445.09145992 35.17789953H533.26878982c4.54110919 9.06129142 13.01645074 17.47385274 25.27953716 24.98656279h317.48001921c3.78774548 0 9.41704602-5.58744724 9.41704662-12.55606137s-5.67115445-12.43050085-9.41704661-12.43050144z m48.25713054-84.33488062H503.09238829a195.20490532 195.20490532 0 0 0 4.28998754 24.94470893h416.90310088a12.55606198 12.55606198 0 1 0 0-24.94470893z m-51.58448665-59.36924532h20.38267337a12.55606198 12.55606198 0 0 0 0-25.00748917H513.32557826a183.67425564 183.67425564 0 0 0-10.46338467 25.00748917h369.83879649z" /></svg>