<?xml version="1.0" standalone="no"?><!DOCTYPE svg PUBLIC "-//W3C//DTD SVG 1.1//EN" "http://www.w3.org/Graphics/SVG/1.1/DTD/svg11.dtd"><svg class="icon" width="200px" height="139.51px" viewBox="0 0 1468 1024" version="1.1" xmlns="http://www.w3.org/2000/svg">
<path fill="#9FB7D1" d="M1231.794717 545.231698c-16.306717 0-32.574792 1.79683-48.495094 5.274566-50.852226-119.788679-169.520302-199.68-297.945359-199.68-160.26566 0-293.520906 114.803925-320.028981 274.238793h-1.120604c-104.795774 0-190.038943 86.711547-190.038943 193.265509s85.24317 193.246189 190.038943 193.246189h667.590038c126.377057 0 229.202113-104.602566 229.202113-233.162868s-102.825057-233.162868-229.202113-233.162868z m183.083472 233.182189c0 102.825057-82.132528 186.445283-183.083472 186.445283H564.204679c-79.36966 0-143.939623-65.709887-143.939622-146.528604 0-80.799396 64.569962-146.567245 143.939622-146.567245 5.293887 0 11.070792 0.425057 18.200151 1.313811l23.436076 2.956076 2.337811-23.78385c14.471245-145.214792 133.64166-254.72483 277.175547-254.72483 117.412226 0 222.826264 75.833962 262.259925 188.725132l7.457811 21.291472 21.25283-6.839547c18.026264-5.796226 36.690113-8.732981 55.469887-8.732981 100.950943 0 183.083472 83.620226 183.083472 186.445283zM297.21117 315.64317a22.682566 22.682566 0 0 0 32.149736 1.429736c9.216-8.539774 9.853585-23.107623 1.410415-32.400906L194.830491 135.052075a22.663245 22.663245 0 0 0-32.149736-1.410415 23.107623 23.107623 0 0 0-1.410415 32.381585l135.94083 149.600604M286.932528 690.968151l-145.292075 140.423245a23.088302 23.088302 0 0 0-0.676227 32.400906 22.701887 22.701887 0 0 0 32.188378 0.676226l145.292075-140.403924a23.146264 23.146264 0 0 0 0.656906-32.420227 22.701887 22.701887 0 0 0-32.169057-0.676226M523.76634 249.720755a22.875774 22.875774 0 0 0 24.131622-21.426717l12.635774-202.442868a22.914415 22.914415 0 0 0-21.25283-24.32483 22.875774 22.875774 0 0 0-24.150944 21.446037l-12.635773 202.423548a22.914415 22.914415 0 0 0 21.25283 24.32483M249.372981 492.215547a22.933736 22.933736 0 0 0-20.924377-24.633962l-200.704-15.688453A22.875774 22.875774 0 0 0 3.284528 472.972075c-0.966038 12.577811 8.44317 23.667925 20.943698 24.653283l200.723321 15.688453a22.837132 22.837132 0 0 0 24.421434-21.078943M604.488453 328.375547c-25.696604-14.297358-54.639094-27.164981-85.76483-29.483472-115.96317-8.69434-217.358491 79.292377-225.975548 196.144302a212.992 212.992 0 0 0 85.436378 186.657812 179.779623 179.779623 0 0 1 25.522717-34.893283 169.500981 169.500981 0 0 1-68.009057-148.557283c6.897509-92.971472 87.56166-162.989887 179.818264-156.073057 18.084226 1.352453 13.176755-3.303849 29.097057 3.284528l6.163321 2.357132s19.320755-20.016302 53.711698-19.436679"  /><path fill="#333333" d="M1344.550642 477.493132c0-102.940981-82.306415-186.696453-183.508529-186.696453-13.06083 0-26.083019 1.410415-38.834717 4.211925-40.70883-95.927547-135.728302-159.917887-238.572679-159.917887-128.289811 0-235.01766 91.947472-256.25117 219.599698h-0.908075c-83.890717 0-152.150943 69.419472-152.150944 154.759245 0 25.484075 6.259925 49.40317 17.040906 70.578717 8.617057-4.308528 20.673208-8.617057 36.245736-11.090113a117.180377 117.180377 0 0 1-16.364679-59.488604c0-64.705208 51.70234-117.354264 115.228981-117.354264 4.250566 0 8.887547 0.347774 14.58717 1.062642l18.741132 2.337811 1.893434-19.030943c11.592453-116.252981 106.99834-203.949887 221.937509-203.949887 94.014792 0 178.42717 60.725132 210.016604 151.107623l5.970113 17.060226 17.002264-5.487094a144.577208 144.577208 0 0 1 44.418415-6.994114c80.838038 0 146.605887 66.985057 146.605887 149.291472 0 8.385208-0.811472 16.577208-2.125283 24.595321 10.124075 2.395774 22.817811 6.569057 34.970566 13.621132 2.55034-12.345962 4.057358-25.116981 4.057359-38.216453"  /></svg>