<?xml version="1.0" standalone="no"?><!DOCTYPE svg PUBLIC "-//W3C//DTD SVG 1.1//EN" "http://www.w3.org/Graphics/SVG/1.1/DTD/svg11.dtd"><svg t="1578327286930" class="icon" viewBox="0 0 1024 1024" version="1.1" xmlns="http://www.w3.org/2000/svg" p-id="2904" xmlns:xlink="http://www.w3.org/1999/xlink" width="200" height="200"><defs><style type="text/css"></style></defs><path d="M1024 476.16c0-93.866667-76.8-170.666667-170.666667-170.666667-13.653333 0-27.306667 1.706667-40.96 5.12-1.706667-5.12-5.12-10.24-6.826666-15.36-39.253333-85.333333-126.293333-141.653333-223.573334-141.653333-95.573333 0-184.32 54.613333-223.573333 141.653333-1.706667 5.12-10.24 23.893333-17.066667 40.96-71.68 23.893333-128 75.093333-160.426666 143.36-11.946667 27.306667-20.48 58.026667-23.893334 88.746667H153.6c-85.333333 0-153.6 66.56-153.6 150.186667S68.266667 870.4 151.893333 870.4H750.933333c102.4 0 184.32-81.92 184.32-182.613333 0-23.893333-5.12-46.08-11.946666-68.266667l5.12 10.24c58.026667-27.306667 95.573333-87.04 95.573333-153.6z m-110.933333 122.88c-30.72-56.32-90.453333-93.866667-160.426667-95.573333-22.186667 0-42.666667 3.413333-61.44 10.24-3.413333-11.946667-8.533333-23.893333-13.653333-34.133334-44.373333-92.16-138.24-157.013333-249.173334-157.013333-15.36 0-30.72 1.706667-46.08 3.413333 3.413333-8.533333 6.826667-13.653333 6.826667-17.066666 34.133333-73.386667 110.933333-121.173333 192.853333-121.173334 83.626667 0 158.72 47.786667 192.853334 122.88 5.12 8.533333 6.826667 17.066667 10.24 27.306667l5.12 15.36 17.066666-5.12c13.653333-5.12 30.72-6.826667 46.08-6.826667 75.093333 0 136.533333 61.44 136.533334 136.533334 0 51.2-30.72 98.986667-76.8 121.173333z" p-id="2905" fill="#515151"></path></svg>