<?xml version="1.0" standalone="no"?><!DOCTYPE svg PUBLIC "-//W3C//DTD SVG 1.1//EN" "http://www.w3.org/Graphics/SVG/1.1/DTD/svg11.dtd"><svg t="1578154844429" class="icon" viewBox="0 0 1024 1024" version="1.1" xmlns="http://www.w3.org/2000/svg" p-id="3322" xmlns:xlink="http://www.w3.org/1999/xlink" width="200" height="200"><defs><style type="text/css"></style></defs><path d="M831.4 787.4c-12.7 0-22.9-10.3-22.9-22.9 0-12.7 10.3-22.9 22.9-22.9 80.7 0 146.3-65.7 146.3-146.3 0-80.7-65.6-146.3-146.3-146.3h-20.8c-12.7 0-22.9-10.3-22.9-22.9v-20.8c0-95.9-78-173.9-173.9-173.9-29.1 0-58 7.3-83.4 21.2-11.1 6.1-25 2-31.1-9.1-6.1-11.1-2-25 9.1-31.1 32.1-17.6 68.5-26.9 105.4-26.9 120.5 0 218.6 97.4 219.7 217.6 105 1.1 190.1 86.9 190.1 192.2 0 105.9-86.3 192.1-192.2 192.1z m0 0" p-id="3323"></path><path d="M627.5 846.3H192.2C86.2 846.3 0 760.1 0 654.1c0-105.3 85.1-191 190.1-192.2 1.1-120.2 99.2-217.6 219.7-217.6s218.6 97.4 219.7 217.6c105 1.1 190.1 86.9 190.1 192.2 0.1 106-86.1 192.2-192.1 192.2zM192.2 507.8c-80.7 0-146.3 65.6-146.3 146.3s65.7 146.3 146.3 146.3h435.3c80.7 0 146.3-65.6 146.3-146.3s-65.6-146.3-146.3-146.3h-20.8c-12.7 0-22.9-10.3-22.9-22.9V464c0-95.9-78-173.9-173.9-173.9s-173.9 78-173.9 173.9v20.8c0 12.7-10.3 22.9-22.9 22.9h-20.9z m0 0" p-id="3324"></path></svg>