<?xml version="1.0" encoding="UTF-8"?>
<svg width="14px" height="14px" viewBox="0 0 14 14" version="1.1" xmlns="http://www.w3.org/2000/svg" xmlns:xlink="http://www.w3.org/1999/xlink">
    <!-- Generator: Sketch 49.1 (51147) - http://www.bohemiancoding.com/sketch -->
    <title>share</title>
    <desc>Created with Sketch.</desc>
    <defs></defs>
    <g id="Symbols" stroke="none" stroke-width="1" fill="none" fill-rule="evenodd">
        <g id="图标/分享" transform="translate(-1.000000, -1.000000)" fill="#9B9B9B" fill-rule="nonzero">
            <g id="share" transform="translate(1.000000, 1.000000)">
                <path d="M3.26277021,10.7044906 C3.26277021,10.7044906 3.25182074,10.7866736 3.25846479,10.8330084 L3.25846479,10.8356033 C3.27760363,11.0356851 3.44612627,11.1920683 3.6511251,11.1920683 C3.85619829,11.1920683 4.0124658,11.0402715 4.04378541,10.8356033 L4.07489017,10.654966 C5.60783216,4.27057515 10.3988978,3.15493596 12.5819902,2.98456223 L10.3767592,5.04242584 C10.2199628,5.19577624 10.2170787,5.44961383 10.3704291,5.60641846 C10.5237961,5.76327269 10.7776171,5.76618152 10.9344961,5.61281461 L13.8721929,2.87135714 C13.9518141,2.79353741 13.9916536,2.68980257 13.9916536,2.5859603 C13.9941493,2.45096369 13.9283781,2.31752894 13.8065787,2.24041163 L10.2234832,0.0694338098 C10.0381769,-0.0479114314 9.79052055,0.0077945 9.67318357,0.193117345 C9.55583833,0.378498029 9.61145337,0.626146061 9.79685058,0.743483039 L12.2555721,2.23324695 C4.61290981,2.96347314 3.40252674,9.66747272 3.26277021,10.7044906 Z" id="Shape"></path>
                <path d="M13.9917363,7.79123805 C13.9917363,7.57092651 13.8131484,7.39241299 13.5928368,7.39241299 C13.3726162,7.39241299 13.1940035,7.57092649 13.1940035,7.79123805 C13.1940035,7.79321308 13.1941688,7.79506417 13.1941688,7.79702268 L13.1940035,7.79702268 L13.1940035,11.8991643 C13.1940035,12.2419694 13.0590151,12.5657927 12.8138462,12.8109533 C12.5686112,13.0561057 12.2448623,13.1912015 11.9020737,13.1912015 L2.0967552,13.1912015 C1.75396661,13.1912015 1.43020118,13.0561057 1.1849827,12.8109533 C0.939830322,12.5657927 0.804833716,12.2419694 0.804833716,11.8991643 L0.804833716,3.18447886 C0.804833716,2.84166548 0.939830322,2.51785048 1.1849827,2.27269808 C1.43012682,2.02753744 1.75396663,1.89254084 2.0967552,1.89254084 L4.65501362,1.89254084 C4.8752508,1.89254084 5.05384695,1.71395295 5.05384695,1.49363314 C5.05384695,1.27340422 4.87525906,1.09482461 4.65501362,1.0948246 L2.0967552,1.0948246 C0.947482543,1.0948246 0.00709267451,2.0351153 0.00709268824,3.18447886 L0.00709268824,11.8992552 C0.00709268824,13.0485361 0.947482557,13.9889342 2.0967552,13.9889342 L11.9020737,13.9889342 C13.0513464,13.9889342 13.9917363,13.0485361 13.9917363,11.8992552 L13.9917363,7.79702268 L13.991571,7.79702268 C13.9915792,7.79506417 13.9917362,7.79321308 13.9917363,7.79123805 Z M4.65501362,1.0948246 L4.65501362,1.89254084 L4.65501362,1.0948246 Z" id="Shape"></path>
            </g>
        </g>
    </g>
</svg>