<?xml version="1.0" standalone="no"?><!DOCTYPE svg PUBLIC "-//W3C//DTD SVG 1.1//EN" "http://www.w3.org/Graphics/SVG/1.1/DTD/svg11.dtd"><svg t="1578325188475" class="icon" viewBox="0 0 1024 1024" version="1.1" xmlns="http://www.w3.org/2000/svg" p-id="3455" xmlns:xlink="http://www.w3.org/1999/xlink" width="200" height="200"><defs><style type="text/css"></style></defs><path d="M778.8 577.9c0-16.5-5.6-30.6-17.1-43.1L424.4 198.1c-11.9-11.9-28.3-22.1-48.1-30.6-20.4-8.6-38.5-12.5-55-12.5H125c-16.5 0-30.6 6.3-42.5 18.1-11.9 11.9-18.1 26-18.1 42.5v195.6c0 16.5 4 35.2 12.5 55 8.6 20.4 18.1 36.2 30.6 48.1l337.2 337.2c11.9 11.9 26 17.1 42.5 17.1s30.6-5.6 43.1-17.1l231.2-231.2c11-11.8 17.3-26 17.3-42.4zM257.8 349c-11.9 11.9-26 17.5-42.5 17.5s-30.6-5.6-42.5-17.5c-11.9-11.9-17.5-26-17.5-42.5s5.6-30.6 17.5-42.5c11.9-11.9 26-17.5 42.5-17.5s30.6 5.6 42.5 17.5c11.9 11.9 17.1 26 17.1 42.5 1 16.8-5.3 30.6-17.1 42.5z m684.6 185.4L605.2 198.1c-11.9-11.9-28.3-22.1-48.1-30.6-20.4-8.6-38.5-12.5-55-12.5h-106c16.5 0 35.2 4 55 12.5 20.4 8.6 36.2 18.1 48.1 30.6l337.2 336.2c11.9 12.5 17.5 26.7 17.5 43.1 0 16.5-5.6 30.6-17.5 42.5l-221 221.6c9.6 9.6 18.1 16.5 25 21.1s16.5 6.3 27.7 6.3c16.5 0 30.6-5.6 43.1-17.5l231.2-231.8c11.9-11.9 17.1-26 17.1-42.5 0.1-16.4-5.5-29.9-17.1-42.7z" p-id="3456" fill="#cdcdcd"></path></svg>