<?xml version="1.0" encoding="UTF-8"?>
<svg width="11px" height="13px" viewBox="0 0 11 13" version="1.1" xmlns="http://www.w3.org/2000/svg" xmlns:xlink="http://www.w3.org/1999/xlink">
    <!-- Generator: Sketch 52.5 (67469) - http://www.bohemiancoding.com/sketch -->
    <title>Combined Shape</title>
    <desc>Created with Sketch.</desc>
    <g id="Photo" stroke="none" stroke-width="1" fill="none" fill-rule="evenodd">
        <g id="媒体云-快讯" transform="translate(-957.000000, -480.000000)" fill="#B0B0BB">
            <g id="快讯/利好" transform="translate(957.000000, 478.000000)">
                <g id="发现/涨" transform="translate(0.000000, 2.000000)">
                    <path d="M6.49264069,3.73421356 L6.49264069,11.5626407 C6.49264069,12.1149254 6.04492544,12.5626407 5.49264069,12.5626407 C4.94035594,12.5626407 4.49264069,12.1149254 4.49264069,11.5626407 L4.49264069,3.73421356 L1.95710678,6.26974746 C1.56658249,6.66027175 0.933417511,6.66027175 0.542893219,6.26974746 C0.152368927,5.87922317 0.152368927,5.24605819 0.542893219,4.8555339 L4.78553391,0.612893212 C5.1760582,0.22236892 5.80922318,0.22236892 6.19974747,0.612893212 L10.4423882,4.8555339 C10.8329124,5.24605819 10.8329124,5.87922317 10.4423882,6.26974746 C10.0518639,6.66027175 9.41869888,6.66027175 9.02817459,6.26974746 L6.49264069,3.73421356 Z" id="Combined-Shape"></path>
                </g>
            </g>
        </g>
    </g>
</svg>