<?xml version="1.0" standalone="no"?><!DOCTYPE svg PUBLIC "-//W3C//DTD SVG 1.1//EN" "http://www.w3.org/Graphics/SVG/1.1/DTD/svg11.dtd"><svg t="1578123392909" class="icon" viewBox="0 0 1024 1024" version="1.1" xmlns="http://www.w3.org/2000/svg" p-id="1937" xmlns:xlink="http://www.w3.org/1999/xlink" width="200" height="200"><defs><style type="text/css"></style></defs><path d="M511.79008 194.97984c-97.14176 0-176.16896 79.0272-176.16896 176.16896s79.0272 176.16896 176.16896 176.16896c97.13664 0 176.16896-79.0272 176.16896-176.16896s-79.0272-176.16896-176.16896-176.16896z m118.81984 176.16896c0 65.51552-53.2992 118.81472-118.81984 118.81472-65.51552 0-118.81472-53.2992-118.81472-118.81472s53.2992-118.81472 118.81472-118.81472c65.52064 0 118.81984 53.2992 118.81984 118.81472z" p-id="1938" fill="#999"></path><path d="M643.98848 759.11168l-6.30272-1.1264-3.76832 5.17632a2656.70656 2656.70656 0 0 1-23.43936 31.67232l-10.72128 14.27968 17.7408 2.04288c93.48608 10.77248 123.72992 31.1552 123.72992 39.34208 0 15.06816-78.61248 44.19584-222.91968 45.05088l1.35168-1.60768c12.13952-14.54592 297.35936-358.0672 297.35936-522.78784 0-168.30464-136.91904-305.22368-305.22368-305.22368S206.5664 202.84416 206.5664 371.1488c0 164.72064 285.22496 508.24192 297.36448 522.78784l1.34656 1.60768c-144.31232-0.85504-222.91968-29.9776-222.91968-45.05088 0-8.18688 30.24384-28.5696 123.73504-39.34208l17.7408-2.04288-10.7264-14.27968a2616.90368 2616.90368 0 0 1-23.43424-31.67232l-3.77344-5.17632-6.30272 1.1264c-96.79872 17.28-154.59328 51.44576-154.59328 91.38688 0 66.52928 147.75808 102.4256 286.78656 102.4256s286.78656-35.89632 286.78656-102.4256c0.00512-39.936-57.78432-74.09664-154.58816-91.38176zM263.92064 371.1488c0-136.6784 111.19616-247.87456 247.87456-247.87456s247.87456 111.19616 247.87456 247.87456c0 123.41248-204.60544 389.56544-247.87456 444.46208-43.26912-54.89152-247.87456-321.024-247.87456-444.46208z" p-id="1939" fill="#999"></path></svg>