<?xml version="1.0" standalone="no"?><!DOCTYPE svg PUBLIC "-//W3C//DTD SVG 1.1//EN" "http://www.w3.org/Graphics/SVG/1.1/DTD/svg11.dtd"><svg t="1578125687513" class="icon" viewBox="0 0 1024 1024" version="1.1" xmlns="http://www.w3.org/2000/svg" p-id="2609" xmlns:xlink="http://www.w3.org/1999/xlink" width="200" height="200"><defs><style type="text/css"></style></defs><path d="M480.16 764.8C483.264 688.128 576 642.88 576 608a64 64 0 1 0-128 0 32 32 0 0 1-64 0 128 128 0 1 1 256 0c0 70.72-96.544 88.448-95.84 160H544a32 32 0 1 1-63.84-3.2z m-289.6 12.96a224.096 224.096 0 0 1 38.944-418.08C255.68 227.616 372.224 128 512 128c139.808 0 256.32 99.616 282.496 231.712a224.096 224.096 0 0 1 39.04 417.984l-0.064 0.032a32 32 0 0 1-27.456-57.824A160 160 0 0 0 736 416a224 224 0 0 0-448 0 160 160 0 0 0-68.672 304.576 32 32 0 1 1-28.8 57.184zM512 832a32 32 0 1 1 0 64 32 32 0 0 1 0-64z" p-id="2610" fill="#cdcdcd"></path></svg>