<?xml version="1.0" standalone="no"?><!DOCTYPE svg PUBLIC "-//W3C//DTD SVG 1.1//EN" "http://www.w3.org/Graphics/SVG/1.1/DTD/svg11.dtd"><svg class="icon" width="200px" height="200.00px" viewBox="0 0 1024 1024" version="1.1" xmlns="http://www.w3.org/2000/svg">
<path fill="#766984" d="M950.201662 728.017978l-101.824719-57.52809a195.595506 195.595506 0 0 1 73.348315-43.721349 28.764045 28.764045 0 0 0 18.121348-35.667415 28.764045 28.764045 0 0 0-36.530337-18.121349 264.916854 264.916854 0 0 0-107.002247 68.170787l-228.386517-129.438202 228.098876-129.150562a251.110112 251.110112 0 0 0 107.289888 68.170786 28.764045 28.764045 0 0 0 36.530337-19.27191 28.764045 28.764045 0 0 0-18.121348-35.955056 193.006742 193.006742 0 0 1-74.211236-43.721348l102.4-57.52809a28.764045 28.764045 0 0 0 10.642697-38.54382 28.764045 28.764045 0 0 0-39.406742-10.355057l-102.11236 57.52809a190.993258 190.993258 0 0 1-1.725842-84.566292 28.764045 28.764045 0 0 0-57.52809-11.217977 261.752809 261.752809 0 0 0 6.32809 125.123595l-228.386517 130.301124v-258.876405a270.957303 270.957303 0 0 0 111.892135-57.52809 28.764045 28.764045 0 0 0 2.301123-40.269663 28.764045 28.764045 0 0 0-39.982022-2.588764A185.81573 185.81573 0 0 1 538.588179 143.820225V28.764045a28.764045 28.764045 0 0 0-57.52809 0v115.05618a188.979775 188.979775 0 0 1-74.211236-41.420225 28.764045 28.764045 0 0 0-37.680898 42.858427 248.521348 248.521348 0 0 0 111.892134 57.52809v258.876404l-230.112359-130.013483a269.519101 269.519101 0 0 0 6.61573-125.123595 28.764045 28.764045 0 0 0-57.52809 11.505618A186.966292 186.966292 0 0 1 199.74773 303.460674l-101.537079-57.52809a28.764045 28.764045 0 0 0-39.406741 10.355056 28.764045 28.764045 0 0 0 11.505618 37.680899l102.4 57.52809a195.595506 195.595506 0 0 1-73.923596 43.721349A28.764045 28.764045 0 0 0 80.664584 431.460674a28.764045 28.764045 0 0 0 36.530337 17.833708 253.986517 253.986517 0 0 0 107.289887-68.170786l228.386517 129.725842-230.112359 129.438202a276.710112 276.710112 0 0 0-107.002247-68.170786 28.764045 28.764045 0 0 0-36.530338 18.121348 28.764045 28.764045 0 0 0 18.121349 35.955056A195.020225 195.020225 0 0 1 170.983685 669.914607L70.309528 727.730337a28.764045 28.764045 0 0 0-10.642697 38.831461A28.764045 28.764045 0 0 0 99.073572 776.629213l102.4-57.528089a180.350562 180.350562 0 0 1 1.438203 86.292134 28.764045 28.764045 0 0 0 57.52809 11.217978A241.617978 241.617978 0 0 0 252.961213 690.337079l230.112359-130.013483v258.876404a248.521348 248.521348 0 0 0-111.892134 57.52809 28.764045 28.764045 0 0 0-2.301124 40.269663 28.764045 28.764045 0 0 0 39.982023 2.588764 193.006742 193.006742 0 0 1 74.211235-41.420225v117.069663a28.764045 28.764045 0 0 0 57.52809 0v-115.05618a191.280899 191.280899 0 0 1 72.485394 40.269663 28.764045 28.764045 0 1 0 37.680899-42.570786 266.930337 266.930337 0 0 0-111.604495-57.52809v-258.876405l230.11236 129.725843a247.946067 247.946067 0 0 0-6.32809 125.411236 28.764045 28.764045 0 0 0 34.229213 22.435955 28.764045 28.764045 0 0 0 21.285394-33.653933 188.116854 188.116854 0 0 1 0-84.853932l102.112359 57.52809a28.764045 28.764045 0 1 0 28.764045-49.186517z"  /></svg>