<?xml version="1.0" standalone="no"?><!DOCTYPE svg PUBLIC "-//W3C//DTD SVG 1.1//EN" "http://www.w3.org/Graphics/SVG/1.1/DTD/svg11.dtd"><svg class="icon" width="200px" height="200.00px" viewBox="0 0 1024 1024" version="1.1" xmlns="http://www.w3.org/2000/svg">
<path fill="#519FD9" d="M341.6 705.8c10.1 3.5 20.4 0.1 23-7.6l28.6-83.1c2.6-7.7-3.4-16.7-13.5-20.1s-20.4-0.1-23 7.6l-28.6 83.1c-2.7 7.6 3.4 16.6 13.5 20.1z"  /><path fill="#333333" d="M288.1 867.3c10.1 3.5 20.4 0.1 23-7.6l28.6-83.1c2.6-7.7-3.4-16.7-13.5-20.1s-20.4-0.1-23 7.6l-28.6 83.1c-2.7 7.6 3.4 16.6 13.5 20.1zM483.2 705.9c10.1 3.5 20.4 0.1 23-7.6l28.6-83.1c2.6-7.7-3.4-16.7-13.5-20.1-10.1-3.5-20.4-0.1-23 7.6l-28.6 83.1c-2.6 7.6 3.5 16.6 13.5 20.1zM429.7 867.3c10.1 3.5 20.4 0.1 23-7.6l28.6-83.1c2.6-7.7-3.4-16.7-13.5-20.1-10.1-3.5-20.4-0.1-23 7.6l-28.6 83.1c-2.6 7.6 3.5 16.7 13.5 20.1zM625.2 705.9c10.1 3.5 20.4 0.1 23-7.6l28.6-83.1c2.6-7.7-3.4-16.7-13.5-20.1-10.1-3.5-20.4-0.1-23 7.6l-28.6 83.1c-2.6 7.6 3.4 16.6 13.5 20.1zM571.7 867.3c10.1 3.5 20.4 0.1 23-7.6l28.6-83.1c2.6-7.7-3.4-16.7-13.5-20.1-10.1-3.5-20.4-0.1-23 7.6l-28.6 83.1c-2.6 7.6 3.4 16.7 13.5 20.1zM249.7 649.2c-18.7 0-88-3.5-135-52.7-34-35.5-48.2-86-42.2-150l0.1-0.7c0.2-1.4 4.8-34.6 28.3-68.6 20.6-29.8 59.7-65.7 130.8-72.8 5.7-17.1 18.8-49.7 43.7-83.3 21-28.3 46-51.5 74.5-69.1 35.6-21.9 76.5-34.9 121.5-38.5 45-3.6 87.4 2.5 126.2 18.1 31 12.5 59.6 31 85 55.1 43.1 40.9 62 83.5 62.8 85.3 3.9 8.9-0.2 19.2-9 23.1-8.8 3.9-19.2-0.2-23.1-9-0.2-0.4-17.5-38.9-55.8-74.9-50.5-47.4-112.2-68.5-183.3-62.8-71.5 5.7-129 37.2-170.7 93.5-31.3 42.3-41.4 82.7-41.5 83.1l-3.1 12.7-13 0.7c-52 2.6-91 22.4-116.1 58.7-17.6 25.4-21.9 50.5-22.4 53.1-4.9 53.2 6.1 94.3 32.7 122.1 42.7 44.7 112 41.8 112.7 41.8 9.6-0.5 17.9 7 18.3 16.6 0.5 9.7-7 17.9-16.6 18.3-0.5 0.1-2.2 0.2-4.8 0.2z"  /><path fill="#333333" d="M747.3 638.4c-9.3 0-17-7.3-17.5-16.6-0.5-9.7 7-17.9 16.6-18.3 136.3-6.7 165.1-88.5 170.1-136.6 5.8-55.5-19.4-111.3-65.7-145.5-43.7-32.2-92.8-37.7-145.9-16.2-40.9 16.6-68.5 43.1-68.8 43.3-6.9 6.7-18 6.6-24.7-0.4-6.7-6.9-6.6-18 0.4-24.7 1.3-1.3 32.8-31.5 80-50.7 64.3-26 126.4-19 179.8 20.4 27.5 20.3 49.4 47.3 63.4 78 14.2 31.2 19.9 65.5 16.4 99.2-3 29.1-13.8 71.2-47.7 106.7-35.7 37.3-88 57.9-155.5 61.2-0.4 0.2-0.7 0.2-0.9 0.2z"  /></svg>