<?xml version="1.0" standalone="no"?><!DOCTYPE svg PUBLIC "-//W3C//DTD SVG 1.1//EN" "http://www.w3.org/Graphics/SVG/1.1/DTD/svg11.dtd"><svg t="1579012132019" class="icon" viewBox="0 0 1036 1024" version="1.1" xmlns="http://www.w3.org/2000/svg" p-id="6119" data-spm-anchor-id="a313x.7781069.0.i14" xmlns:xlink="http://www.w3.org/1999/xlink" width="202.34375" height="200"><defs><style type="text/css"></style></defs><path d="M981.513253 430.959036c-3.315663-10.178313-12.106024-17.657831-22.746988-19.2l-274.583132-39.86506-122.756627-248.828916c-4.780723-9.638554-14.573494-15.73012-25.291566-15.73012-10.718072 0-20.510843 6.091566-25.291567 15.73012L388.086747 371.816867 113.503614 411.759036c-10.640964 1.542169-19.431325 8.944578-22.746987 19.2-3.315663 10.178313-0.539759 21.359036 7.093975 28.915663l198.708434 193.696385-46.881928 273.426506c-1.850602 10.563855 2.544578 21.281928 11.180723 27.527711 8.713253 6.322892 20.20241 7.093976 29.686747 2.159036l245.590362-129.079518 245.590361 129.079518c4.086747 2.159036 8.636145 3.238554 13.108434 3.238555 8.327711 0 16.192771-3.701205 21.513253-10.024097 5.320482-6.322892 7.633735-14.727711 6.245783-22.901205L775.710843 653.493976l198.708434-193.696386c7.633735-7.479518 10.33253-18.660241 7.093976-28.838554z" fill="#CDCBC9" p-id="6120" data-spm-anchor-id="a313x.7781069.0.i11" class=""></path><path d="M535.595181 107.412048c-10.486747 0.231325-20.048193 6.245783-24.751808 15.653012L388.086747 371.816867 113.503614 411.759036c-10.640964 1.542169-19.431325 8.944578-22.746987 19.2-3.315663 10.178313-0.539759 21.359036 7.093975 28.915663l198.708434 193.696385-46.881928 273.426506c-1.850602 10.563855 2.544578 21.281928 11.180723 27.527711 8.713253 6.322892 20.20241 7.093976 29.686747 2.159036l245.050603-128.848192V107.412048z" fill="#F4AF4B" p-id="6121" data-spm-anchor-id="a313x.7781069.0.i15" class="selected"></path></svg>